<svg xmlns="http://www.w3.org/2000/svg" viewBox="0 0 100 125" x="0px" y="0px"><g data-name="Camada 1"><path d="M10.56,24.74c.22.44.22.59.18.71a.76.76,0,0,1-.45.36c-.27.09-.48,0-.5.06s.15.11.68.43l.24.1a1.21,1.21,0,0,1,.54.49l.41.68a2.07,2.07,0,0,0,1.94.83l2.55-.34a.54.54,0,0,0,.27-.11,2.14,2.14,0,0,0,.84-2.07,6.25,6.25,0,0,0-.42-1.46.38.38,0,0,0-.55-.17.86.86,0,0,1-1,0l-.24-.16a1.68,1.68,0,0,0-1-.33,2.36,2.36,0,0,0-.87.17.41.41,0,0,1-.56-.36l0-1A.42.42,0,0,0,12,22.2l-1.16.44a.22.22,0,0,0-.06.39c1,.5,1.18.74,1.15.87s-.55.18-.64.18c-.73,0-1.2-.39-1.28-.29S10.26,24.12,10.56,24.74Z"/><path d="M11.76,52.25,11.67,52a.81.81,0,0,1,.45-1h0a1.21,1.21,0,0,0,.75-1.24l-.07-.67a2.15,2.15,0,0,1,.22-1.2h0a.48.48,0,0,1,.63-.21l.21.1a.77.77,0,0,0,1-.38l.12-.28a1.21,1.21,0,0,1,1.1-.72h0a.45.45,0,0,1,.43.32h0a.44.44,0,0,0,.4.33h.2a.57.57,0,0,1,.55.61l0,.51a1.21,1.21,0,0,1-.69,1h0a.66.66,0,0,0-.36.51L16.45,51a1.89,1.89,0,0,1-.3.86h0a.86.86,0,0,1-1,.37h0A1.52,1.52,0,0,0,14,52.4h0a3,3,0,0,1-1.49.39h0A.82.82,0,0,1,11.76,52.25Z"/><path d="M24,55c.09-.07,1-.9.83-1.6a.71.71,0,0,0-.29-.42,1.88,1.88,0,0,0-.91-.11h-.08a.31.31,0,0,1-.34-.39h0a3.54,3.54,0,0,0,.06-1.71L23.12,50a.94.94,0,0,0-.34-.54h0a1,1,0,0,1-.4-.78l-.05-.94a1.89,1.89,0,0,0-.78-1.36.58.58,0,0,1-.05-.71c.17-.3.42-.38.73-.69a2,2,0,0,0,.5-.89h0a.58.58,0,0,0-.47-.79l-1-.14c-.22,0-.34-.06-.36-.14s.12-.37,1-.81l.26-.12a.61.61,0,0,0,0-.5.64.64,0,0,0-.21-.19.52.52,0,0,0-.26-.06h-.76a1.2,1.2,0,0,0-.89.4l-.17.2a3.31,3.31,0,0,0-.71,1.38l-.14.57a1.83,1.83,0,0,1-.35.64.77.77,0,0,0,0,1l.33.4a.76.76,0,0,1,.18.59,1.67,1.67,0,0,1-.44,1,.51.51,0,0,0,0,.69.6.6,0,0,0,.66.14c.72-.28.94-.26,1-.19s-.18.31-.25.8a2.56,2.56,0,0,0,0,.56c0,.26.07.63.14,1.06l0,.16a.69.69,0,0,1-.77.55,1.7,1.7,0,0,0-.78,0c-.36.34-.11.45-.15,1a1.27,1.27,0,0,1-.61,1l-.6.37a.16.16,0,0,0,0,.26l.63.4a2.82,2.82,0,0,0,1.25.42c.36,0,.45.1.46.16s-.16.24-.31.37l-.12.07a.36.36,0,0,1-.14,0l-.42,0a5.39,5.39,0,0,0-1.47.38c-.67.28-1.34.71-1.28.86s.3.08.84.09a2.31,2.31,0,0,1,.38,0,1.76,1.76,0,0,1,.36.13l.33.15a.53.53,0,0,0,.27,0c.21-.09.24-.29.42-.43a.71.71,0,0,1,.58-.12l3.65.31a2,2,0,0,0,1.12-.21c.3-.16.57-.49.53-.61s-.93,0-1-.26S23.66,55.27,24,55Z"/><path d="M69.72,63.9l.67.13a6,6,0,0,1,3,1.5h0a2,2,0,0,0,1.33.55l.93,0a1.31,1.31,0,0,1,1.24,1.09h0a.49.49,0,0,0,.68.37h0a2.5,2.5,0,0,1,2.26.09h0a1.06,1.06,0,0,1,.54.76l.12.76a.24.24,0,0,0,.34.18h0a1.31,1.31,0,0,1,1.23,0l2.88,1.72a.63.63,0,0,0,.86-.2l.83-1.31a1.47,1.47,0,0,1,.91-.65h0a.39.39,0,0,1,.47.4l0,.45a.69.69,0,0,0,.8.72l.35-.06a.43.43,0,0,0,.36-.45l-.19-2.27a2.25,2.25,0,0,0-1-1.71L86,64.56a2.77,2.77,0,0,1-1.1-1.4l0-.1a1.6,1.6,0,0,0-1.11-1h0a.82.82,0,0,1-.61-.86l.07-.79a3.43,3.43,0,0,1,.88-2l.23-.25a.89.89,0,0,0,0-1.21L83.47,56a2.06,2.06,0,0,0-.9-.55l-.47-.15a1.79,1.79,0,0,1-1.26-1.69l0-1.53a.35.35,0,0,1,.47-.33l.47.16a.25.25,0,0,0,.33-.25h0a4,4,0,0,1,1.47-3.44h0a3.33,3.33,0,0,1,2.16-.74l2.26.06a2.41,2.41,0,0,0,1.88-.83l.28-.32a2.73,2.73,0,0,1,2.07-.94h0a1.47,1.47,0,0,0,1.16-.57l.76-1a.59.59,0,0,0,.05-.64h0a.57.57,0,0,0-.47-.29l-2.64-.1A1.16,1.16,0,0,1,90,42.11l-.92-2.74a.19.19,0,0,0-.35,0l-.5.84a.92.92,0,0,1-.75.44l-.74,0a.35.35,0,0,1-.37-.27l0-.06a.52.52,0,0,1,.45-.63l.22,0a.68.68,0,0,0,.62-.68v-.71a.43.43,0,0,0-.62-.39l-.58.26a1,1,0,0,1-1-.14h0a1.46,1.46,0,0,1-.5-1.1v-.67a5.8,5.8,0,0,0-.79-2.93l-4.74-8.25a2.43,2.43,0,0,1-.06-2.34l.29-.58a1,1,0,0,0,0-1l0,0a1.11,1.11,0,0,1,0-1.2l0-.07a2.23,2.23,0,0,0,.26-1.78v0a1.28,1.28,0,0,0-.82-.87l-1.48-.5A.76.76,0,0,1,77,16h0a.31.31,0,0,0-.4-.3l-.45.15a1.17,1.17,0,0,0-.82,1h0a.75.75,0,0,1-.65.68l-.82.12a1.84,1.84,0,0,0-1.31.9l-.28.5a.6.6,0,0,1-.75.27l-1.31-.52a.29.29,0,0,0-.37.4l.55,1.19a.28.28,0,0,1-.35.37h0a.82.82,0,0,0-1.07.45l-.54,1.3a.53.53,0,0,1-.83.21l-.1-.07a.64.64,0,0,0-1,.15h0a1.79,1.79,0,0,1-1.58.82l-.63,0a.85.85,0,0,0-.82.57h0a.79.79,0,0,0,.16.8h0a.42.42,0,0,1-.07.61l-.32.22a.81.81,0,0,1-1,0L62,25.5a.44.44,0,0,1-.15-.51h0a.48.48,0,0,0-.26-.62h0a4,4,0,0,0-1.45-.27h0a1.52,1.52,0,0,0-1.43,1l-.41,1.09a.8.8,0,0,0,.34,1l.06,0a.61.61,0,0,1,.23.81h0a.4.4,0,0,1-.43.22l-1.91-.34a.37.37,0,0,0-.43.41h0a.85.85,0,0,0,.62.71l.54.15a.58.58,0,0,1,.41.69h0a.37.37,0,0,1-.41.28L56.06,30a1.64,1.64,0,0,1-1.12-.64h0a2.82,2.82,0,0,1-.58-1.52h0A.92.92,0,0,0,53.6,27l-.2,0a1,1,0,0,1-.63-.35L52.19,26a.22.22,0,0,1,.19-.37l2.93.35a3.1,3.1,0,0,0,2.1-.5h0a1.56,1.56,0,0,0,.68-1.08h0A1.64,1.64,0,0,0,57.7,23h0a2.43,2.43,0,0,0-1-.66l-1.46-.53a12.48,12.48,0,0,0-3.87-.75L49.72,21a.4.4,0,0,1-.37-.53h0a.62.62,0,0,0-.38-.78l-.55-.21a2,2,0,0,0-1.61.12l-4.17,2.3A6.64,6.64,0,0,0,40,24.61l-3.2,6a13.25,13.25,0,0,1-4.55,4.94l-.18.11a3.54,3.54,0,0,0-1.63,3l0,2.94a2.82,2.82,0,0,0,.83,2l.17.17a1.21,1.21,0,0,0,.81.36h0a1,1,0,0,0,.83-.39l1-1.29a1,1,0,0,1,1.71.39l0,.15a6.77,6.77,0,0,0,.6,1.74l.73,1.46a1.21,1.21,0,0,1-.48,1.58h0a1.37,1.37,0,0,0-.63.75l-.39,1.11a.78.78,0,0,0,.24.88h0a.66.66,0,0,0,.72.08l1.88-1a1.33,1.33,0,0,0,.7-1h0a.85.85,0,0,1,.74-.72h0a1.33,1.33,0,0,0,1.15-1.19l.2-2.32a2,2,0,0,1,1-1.6h0a1.67,1.67,0,0,0,.78-1.1h0A1.71,1.71,0,0,0,42.37,40h0a1.62,1.62,0,0,1-.7-1.41l.09-1.77a3.22,3.22,0,0,1,.74-1.92L44.06,33a2,2,0,0,0,.46-1.27h0a1.85,1.85,0,0,1,.75-1.48l.27-.2a.88.88,0,0,1,1.32.33h0a1.15,1.15,0,0,1,0,1.08l-1.51,2.67a3.35,3.35,0,0,0-.36,2.4l.45,2a.88.88,0,0,0,.42.58l1.15.68a1.35,1.35,0,0,0,1.32,0l2.3-1.21a2.55,2.55,0,0,1,2.24,0h0a.41.41,0,0,1-.07.76l-.3.07a.74.74,0,0,0-.56.72h0a.36.36,0,0,1-.34.36l-2.22.16a2.5,2.5,0,0,0-1.1.35l-1.36.8a.83.83,0,0,0-.42.78l0,.55a.34.34,0,0,0,.51.28h0A2.21,2.21,0,0,1,48.27,43h0a.61.61,0,0,1,.59.6l0,1.28a.35.35,0,0,1-.51.31l-1-.53a.67.67,0,0,0-.95.35h0a4,4,0,0,0-.21,2.22h0a4,4,0,0,1-.67,3.1h0a1.44,1.44,0,0,1-1.21.63h0a.77.77,0,0,1-.72-.49h0a.26.26,0,0,0-.34-.15l-3,1.14a1.16,1.16,0,0,0-.69.7h0a.35.35,0,0,1-.53.17l-1.25-.9a.7.7,0,0,0-.89.05h0a1.26,1.26,0,0,1-1.57.09h0a2.88,2.88,0,0,1-1.2-2.07h0a.85.85,0,0,1,.24-.69h0a1.21,1.21,0,0,0,.28-.46l.14-.42a6.62,6.62,0,0,0,.36-2.16h0a.43.43,0,0,0-.64-.37l-1,.56a1.32,1.32,0,0,0-.66,1.22L33.07,51a1.29,1.29,0,0,1-1.14,1.35l-1.05.12a3.28,3.28,0,0,0-2.47,1.63l-.15.27a4.85,4.85,0,0,1-3.12,2.34l-.08,0a1.19,1.19,0,0,0-.86.78l0,0a1.31,1.31,0,0,1-1.2.91h0a1,1,0,0,0-.9.62h0a.42.42,0,0,1-.6.19l-.94-.55a.38.38,0,0,0-.57.36v.17a1,1,0,0,1-1,1.05h0A.68.68,0,0,1,18.4,60h0a.71.71,0,0,0-.64-.36l-1.1,0a.79.79,0,0,0-.77.88h0a.73.73,0,0,0,.4.56l.48.23A5.39,5.39,0,0,1,19,63.36h0a4.09,4.09,0,0,1,.6,2v0a3.73,3.73,0,0,1-.27,1.55l-.9,2.23a1.3,1.3,0,0,1-1.59.76l-5.79-1.74a.53.53,0,0,1-.37-.43.58.58,0,0,0-.57-.5H9.84a.45.45,0,0,0-.45.46.53.53,0,0,1-.42.48l-.41.11a.65.65,0,0,0-.47.86,1.77,1.77,0,0,1,0,1.3l-2.2,5.16a.83.83,0,0,0,.21.9.68.68,0,0,1,.18.71l-.49,1.41a.59.59,0,0,0,.53.78l1.28,0a1.54,1.54,0,0,1,1,.4A1.48,1.48,0,0,1,9,80.94v.26a1,1,0,0,0,.52.86,1.19,1.19,0,0,0,1,0A4.25,4.25,0,0,1,13,81.75l1.59.23a1.48,1.48,0,0,0,1.28-.46l.22-.24a1.13,1.13,0,0,1,.8-.34,1.61,1.61,0,0,0,1-.4l1.22-1.1a.38.38,0,0,0,0-.58.82.82,0,0,1-.34-.66A1.92,1.92,0,0,1,19.17,77l1.3-1.54a1.65,1.65,0,0,1,1.21-.58,4.54,4.54,0,0,0,1.62-.4,1.81,1.81,0,0,0,1-1.54l.07-1a.74.74,0,0,1,.51-.68,2.39,2.39,0,0,1,1.45,0l1.5.5a1.65,1.65,0,0,0,1.46-.22l3.11-1.83c.52-.31,1-.07,1,.54h0a1.44,1.44,0,0,1,.78.94,4,4,0,0,0,1.19,2l3.77,3.34a1.15,1.15,0,0,0,.83.25.58.58,0,0,1,.61.52.62.62,0,0,0,.56.58.67.67,0,0,1,.59.4,4.17,4.17,0,0,1,.13,2.91l-.08.25A.38.38,0,0,0,42,82a.4.4,0,0,0,.47-.22L43,80.61a.84.84,0,0,1,.68-.46.36.36,0,0,0,.32-.41L44,79.35a.55.55,0,0,0-.5-.48.47.47,0,0,1-.41-.59l.16-.52a.53.53,0,0,1,.76-.31l1.13.63a.31.31,0,0,0,.46-.25.77.77,0,0,0-.4-.75l-2.91-1.52a.8.8,0,0,1-.4-.61.48.48,0,0,0-.64-.45,1.11,1.11,0,0,1-1.07-.28,4.34,4.34,0,0,1-1.3-2.16.81.81,0,0,0-.26-.42l-1.13-.92a1.49,1.49,0,0,1-.44-.58,2.91,2.91,0,0,1-.22-1.06v-.36a1,1,0,0,1,.53-.9,1,1,0,0,1,1.44.81,1.2,1.2,0,0,0,.43.73l2.14,1.79a1.81,1.81,0,0,0,1.17.44,2,2,0,0,1,1.18.42l2,1.53a2.94,2.94,0,0,1,1.11,2A4.37,4.37,0,0,0,48,78.29a4.48,4.48,0,0,1,.82,1.07,16.67,16.67,0,0,0,1.58,2.71l.84,1.12a1.53,1.53,0,0,0,1.27.6.58.58,0,0,0,.53-.68l-.14-.85a.78.78,0,0,1,.85-.91.86.86,0,0,0,.91-.71.68.68,0,0,0-.23-.63l-2.73-2.4a.55.55,0,0,1-.13-.64h0a.35.35,0,0,1,.54-.12l.29.23a1,1,0,0,0,.5.21h0a.73.73,0,0,0,.7-.32h0a.52.52,0,0,0-.13-.72h0a.4.4,0,0,1,0-.64h0a1.37,1.37,0,0,1,.87-.32H57a1.07,1.07,0,0,0,1-.66h0a.42.42,0,0,1,.3-.26l1.24-.31a.39.39,0,0,0,.11-.71h0a3.12,3.12,0,0,1-1.47-2.88l.17-2.55a1.19,1.19,0,0,1,.76-1h0a.82.82,0,0,0,.52-.58l.69-2.86a1.13,1.13,0,0,1,.59-.74h0a.79.79,0,0,1,1.08.37h0a.45.45,0,0,0,.52.25l.88-.06a.39.39,0,0,1,.34.63l-.39.49a.23.23,0,0,0,.15.37l.49.07a.83.83,0,0,1,.69.73v.12a.44.44,0,0,0,.42.39h0a1.13,1.13,0,0,0,1-.48l.72-1a1.39,1.39,0,0,1,.67-.5h0A4.43,4.43,0,0,1,69.72,63.9Z"/><path d="M70,58.72,65.89,62a.73.73,0,0,0-.09,1.07l.19.2a.78.78,0,0,0,1.05.1A2.22,2.22,0,0,1,68.33,63a1.19,1.19,0,0,0,1.15-1l.12-.66a.83.83,0,0,0-.08-.51.61.61,0,0,1,.1-.7l.89-.62a.5.5,0,0,0,.18-.63A.5.5,0,0,0,70,58.72Z"/><path d="M40.79,81.56l-3.44.18a.46.46,0,0,0-.43.45v.18a.45.45,0,0,0,.28.42,5.9,5.9,0,0,1,1.56.33,5.67,5.67,0,0,1,1.67,1,.54.54,0,0,0,.42,0,.41.41,0,0,0,0-.56A.9.9,0,0,1,41,82.43c.18-.35.17-.68,0-.81A.24.24,0,0,0,40.79,81.56Z"/><path d="M32.27,74.42l-.38-1.3A.09.09,0,0,1,32,73h.8a.08.08,0,0,1,.08.11l-.43,1.3A.08.08,0,0,1,32.27,74.42Z"/><path d="M31.39,78V76a.34.34,0,0,1,.19-.31l.77-.41a.34.34,0,0,1,.46.14l.22.38a.39.39,0,0,1,0,.21l-.18,1.8a.38.38,0,0,1-.27.31l-.8.17A.35.35,0,0,1,31.39,78Z"/></g><text x="0" y="115" fill="#000000" font-size="5px" font-weight="bold" font-family="'Helvetica Neue', Helvetica, Arial-Unicode, Arial, Sans-serif">Created by Leonardo Henrique Martini</text><text x="0" y="120" fill="#000000" font-size="5px" font-weight="bold" font-family="'Helvetica Neue', Helvetica, Arial-Unicode, Arial, Sans-serif">from the Noun Project</text></svg>