<svg xmlns="http://www.w3.org/2000/svg" version="1.1" viewBox="-5.0 -10.0 110.0 135.0">
 <g>
  <path d="m53.938 81.953 0.51562-1.4766c0.03125-0.085937 0.015625-0.18359-0.039063-0.25391-0.054687-0.074218-0.14062-0.11328-0.23047-0.10938l-1.1562 0.050781c-0.28516 0.011719-0.54688 0.14844-0.71875 0.37891l-0.38281 0.74219c-0.19531 0.37891-0.58594 0.61719-1.0156 0.61719h-1.7891c-0.46875 0-0.89844-0.25-1.1289-0.65625l-0.50781-0.89453c-0.27734-0.48437-0.39844-1.0391-0.35547-1.5938l0.23438-3.0938c0.03125-0.44922 0.27344-0.85547 0.64844-1.1055 0.50391-0.33203 1.0938-0.51172 1.6953-0.51172l2.5742 0.054687h0.003906c0.15234 0.003907 0.29688-0.054687 0.40625-0.16016 0.10547-0.10938 0.16406-0.25391 0.16016-0.40625-0.003906-0.20703 0.15625-0.37891 0.35938-0.39062 1.0781-0.058593 2.1602 0.12109 3.1641 0.52734 0.54297 0.21875 0.97656 0.65625 1.1875 1.2031l0.73047 1.8945v0.003907c0.10938 0.28125 0.35938 0.48437 0.65625 0.53125 0.10156 0.019531 0.19922-0.046876 0.22266-0.14844 0 0 0.054687-0.23438 0.11719-0.5h0.003907c0.10938-0.46484 0.074219-0.94922-0.10156-1.3945l-0.007812-0.019531c-0.22656-0.57422-0.36719-1.1797-0.42578-1.793l-0.066406-0.72266h0.003906c-0.046874-0.48047 0.16406-0.94922 0.55078-1.2422l1.9336-1.4531c0.40234-0.30469 0.62891-0.78516 0.60937-1.2891v-0.03125c-0.035156-0.82031 0.17188-1.6289 0.60156-2.3281 0.21484-0.35156 0.44922-0.73437 0.65625-1.0742 0.34375-0.5625 0.94531-0.91406 1.6055-0.93359 0.39844-0.015625 0.71094-0.33984 0.71094-0.73438 0-0.71484 0.35547-1.3828 0.94531-1.7812l0.78125-0.52734h0.003906c0.59766-0.40625 1.3047-0.61328 2.0273-0.60156l0.42188 0.007812h-0.003907c0.17578 0.003907 0.33594-0.10547 0.39844-0.26562 0.089844-0.23828-0.019531-0.50781-0.25-0.61328-0.33594-0.16016-0.53516-0.51172-0.49609-0.87891l0.082032-0.79688c0.015624-0.16016-0.035157-0.31641-0.14063-0.42969-0.10547-0.11719-0.25781-0.1875-0.41406-0.1875h-1.0508c-0.085938 0-0.16406-0.039062-0.21484-0.11328-0.046875-0.070313-0.054687-0.16016-0.023437-0.23828l0.11719-0.28125c0.14062-0.33984 0.47266-0.55859 0.83984-0.55859h3.2852-0.003906c0.40625 0 0.78516-0.19922 1.0117-0.53125 0.23437-0.33984 0.58594-0.57812 0.98828-0.66797l0.56641-0.12891c0.25781-0.054687 0.45312-0.26953 0.48438-0.53125l0.03125-0.25391h-0.003906c0.046875-0.39062-0.22266-0.75-0.61328-0.8125l-0.16016-0.027344v0.003906c-0.21875-0.035156-0.37109-0.23047-0.35938-0.44922l0.027344-0.42969c0.007813-0.12109-0.03125-0.23828-0.11328-0.32812-0.078125-0.089844-0.19141-0.14062-0.3125-0.14844l-0.26172-0.011718v0.003906c-0.40234-0.015625-0.79297-0.15625-1.1133-0.40625l-0.96484-0.75c-0.20312-0.16016-0.3125-0.41406-0.28125-0.67188l0.007812-0.078125h0.003907c0.023437-0.21875-0.019531-0.4375-0.125-0.62891l-1.5664-2.7852c-0.089843-0.15234-0.24609-0.25391-0.42578-0.26953-0.089843-0.003906-0.17969 0.027344-0.24609 0.089844-0.066407 0.066406-0.10156 0.15234-0.10156 0.24609l0.035156 0.87109c0.011719 0.28906-0.16797 0.55078-0.44141 0.64453l-0.26562 0.089843c-0.28906 0.097657-0.60547 0.09375-0.89453-0.007812l-0.6875-0.24609-0.003907-0.003906c-0.36719-0.13281-0.61328-0.48438-0.60547-0.87891l0.011718-0.8125c0.003907-0.34766-0.25391-0.64844-0.60156-0.69141l-0.0625-0.007813c-0.38672-0.050781-0.72656-0.28516-0.91016-0.62891l-0.15234-0.28516h0.003906c-0.25781-0.48047-0.76562-0.76953-1.3086-0.74609l-1.5234 0.074219h-0.003906c-0.36328 0.019531-0.65625 0.3125-0.67188 0.67969l-0.10156 2.6133c-0.011719 0.32812 0.14453 0.64062 0.41797 0.82812l0.17578 0.12109h-0.003906c0.3125 0.21484 0.50391 0.56641 0.51172 0.94531l0.019531 0.99609c0.011719 0.44922-0.20703 0.86719-0.57812 1.1172l-0.32031 0.21484h0.003906c-0.49609 0.33594-0.72656 0.94531-0.58203 1.5234l0.39063 1.5312v0.003906c0.046874 0.1875 0.007812 0.38281-0.10547 0.53906s-0.29297 0.25391-0.48438 0.26562c-0.21484 0.011718-0.42969-0.015625-0.63281-0.082032-0.33594-0.10547-0.58984-0.38281-0.66797-0.72266l-0.48047-2.0391c-0.12891-0.53516-0.59766-0.92188-1.1484-0.94141-0.65625-0.019532-1.293-0.22266-1.8438-0.58203l-0.48047-0.31641v0.003906c-0.76563-0.5-1.6289-0.82812-2.5312-0.96484l-0.51172-0.078124c-0.20312-0.027344-0.36719-0.17969-0.41016-0.37891l-0.15234-0.67188c-0.066407-0.28125-0.27734-0.50391-0.55078-0.58203-0.34375-0.10156-0.57422-0.41797-0.57031-0.77344 0.015625-0.75781 0.19531-1.5039 0.53125-2.1836 0.29297-0.59766 0.76562-1.0938 1.3477-1.418 0.19141-0.10547 0.34766-0.26953 0.44531-0.46484 0.32812-0.65625 0.90234-1.1523 1.5938-1.3906 0.23438-0.078125 0.41797-0.26953 0.49609-0.50391l0.20703-0.65625c0.21875-0.6875 0.85547-1.1523 1.5742-1.1523h0.64844c0.25781 0 0.51172-0.066406 0.73438-0.19922l0.16797-0.097657c0.28906-0.16797 0.49609-0.44922 0.57422-0.77344 0.027343-0.11719 0.003906-0.23438-0.0625-0.33203-0.066407-0.097656-0.17188-0.16016-0.28906-0.17187-0.085937-0.011719-0.16016-0.066407-0.19922-0.14453-0.039062-0.078125-0.03125-0.17188 0.011719-0.24219l0.11328-0.17969v-0.003906c0.19922-0.31641 0.15625-0.72266-0.10156-0.99219-0.17578-0.1875-0.23438-0.45703-0.14844-0.69922 0.089844-0.24609 0.34766-0.38672 0.60547-0.32422l0.23047 0.054688c0.34766 0.085937 0.71484 0.023437 1.0117-0.17578 0.31641-0.21094 0.73047-0.20312 1.0391 0.015625l2.6211 1.8828h0.003906c0.32422 0.23438 0.55078 0.58203 0.64062 0.97266 0.09375 0.42188-0.10156 0.85938-0.48438 1.0703-0.23828 0.12891-0.39453 0.37109-0.41406 0.64063-0.039062 0.5-0.45703 0.88672-0.96094 0.87891l-0.74609-0.011719c-0.19531 0-0.38672 0.082031-0.51953 0.22656-0.13281 0.14453-0.19922 0.33984-0.17969 0.53906 0.03125 0.32422 0.31641 0.56641 0.64063 0.54297l1.0078-0.066407c0.54688-0.039062 1.082 0.15625 1.4805 0.53125l0.76562 0.72266h0.003906c0.26172 0.25 0.5625 0.44922 0.89062 0.59375l2.2344 0.98438c0.21094 0.09375 1.1172 0.20703 0.59766-0.15234l-1.8203-1.5312c-0.125-0.10547-0.15234-0.28516-0.066406-0.42188 0.0625-0.10156 0.16797-0.16797 0.28125-0.19141 0.11719-0.019531 0.23828 0.007812 0.33203 0.082031l1.3828 1.0508c0.089844 0.070313 0.21094 0.082031 0.31641 0.035157 0.10156-0.050782 0.16797-0.15234 0.17187-0.26563l0.019532-0.58594 0.003906 0.003906c0.011719-0.41016-0.16797-0.80078-0.48438-1.0586l-1.4531-1.1641c-0.25781-0.20312-0.35938-0.54688-0.25781-0.85547 0.023437-0.12109 0.097656-0.22656 0.20312-0.28516 0.10547-0.058594 0.23438-0.070312 0.34766-0.023438 0.62891 0.41406 1.2227 0.875 1.7734 1.3867 0.066406 0.058594 0.15234 0.085938 0.23828 0.074219 0.089843-0.011719 0.16797-0.058594 0.21484-0.12891l0.85938-1.207c0.085938-0.11719 0.11328-0.26562 0.082032-0.40625-0.035157-0.14062-0.12891-0.25781-0.25781-0.32812l-3.3828-1.7695v0.003906c-0.11328-0.0625-0.19141-0.16797-0.21484-0.29687-0.023438-0.125 0.015625-0.25781 0.10156-0.35156 0.21484-0.23438 0.33203-0.53906 0.33203-0.85547 0-0.35156-0.1875-0.67188-0.49219-0.84375l-4.3125-2.418h-0.003906c-0.25391-0.14063-0.46094-0.35547-0.59766-0.60938l-0.39453-0.73047h-0.003906c-0.15625-0.28906-0.44922-0.48047-0.78125-0.50781l-4.9453-0.38281h0.003907c-0.33203-0.023438-0.66016 0.085937-0.90625 0.30859l-0.70312 0.63281c-0.37891 0.34375-0.57812 0.83984-0.54688 1.3477l0.0625 0.98828c0.03125 0.50391 0.34766 0.94141 0.8125 1.1328l0.86719 0.35547v0.003906c0.375 0.15234 0.62109 0.52344 0.62109 0.92969v0.94531c0 0.5-0.14453 0.98438-0.42188 1.3984-0.074219 0.10937-0.19531 0.17969-0.32812 0.19141-0.13281 0.011718-0.26172-0.039063-0.35156-0.13672-0.10156-0.10156-0.15234-0.23828-0.15234-0.38281v-1.0391c-0.003906-0.20703-0.15234-0.39062-0.35547-0.42969l-0.29297-0.058593-0.003906 0.003906c-0.11719-0.023437-0.23438 0.050781-0.26172 0.16797l-0.13672 0.53125v-0.003906c-0.039062 0.15234-0.24219 0.17969-0.31641 0.042968l-1.6289-2.9648c-0.25-0.45703-0.40234-0.96484-0.4375-1.4844l-0.007812-0.11719h-0.003907c-0.019531-0.25781 0.15625-0.49219 0.40625-0.55078 0.35547-0.082031 0.65625-0.3125 0.83203-0.62891l0.35938-0.64453c0.066406-0.12109 0.066406-0.26562-0.003907-0.38672-0.070312-0.11719-0.19531-0.19141-0.33594-0.19141h-1.2969c-0.53906 0-0.98438 0.41406-1.0234 0.94922l-0.26172 3.4336c-0.019531 0.26172 0.09375 0.51172 0.30078 0.66797l0.57422 0.4375v0.003906c0.20313 0.15625 0.33203 0.38672 0.36328 0.64453 0.027344 0.25391-0.050782 0.51172-0.21875 0.70703l-0.94141 1.1172c-0.066407 0.078125-0.19141 0.027344-0.18359-0.074219l0.058594-0.75-0.003907-0.003906c0.03125-0.42188-0.14844-0.83594-0.48438-1.1016l-0.55859-0.44141c-0.066406-0.054688-0.15625-0.066406-0.23828-0.035156-0.078125 0.03125-0.13281 0.10547-0.14453 0.1875l-0.17969 1.3281c-0.074218 0.54297-0.53125 0.94922-1.0742 0.96484l-0.79297 0.019532h-0.003906c-0.54297 0.011718-1.0781-0.15234-1.5234-0.46875l-0.28906-0.20703c-0.25781-0.18359-0.59375-0.21094-0.875-0.074218l-0.89844 0.4375c-0.62891 0.30469-1.3281 0.42969-2.0234 0.36719l-1.6445-0.15625h0.003907c-0.26172-0.027343-0.46875-0.23438-0.48438-0.49609l-0.003906-0.015626c-0.03125-0.42187-0.32031-0.77734-0.72656-0.89062l-4.8828-1.3711c-0.29687-0.085938-0.61719 0.015625-0.8125 0.25391-0.09375 0.11719-0.23437 0.18359-0.38672 0.1875-0.14844 0-0.29297-0.0625-0.39062-0.17578l-0.51953-0.60547c-0.066407-0.078125-0.16406-0.11328-0.26563-0.10156-0.097656 0.015624-0.18359 0.078124-0.22656 0.16797-0.11719 0.26172-0.40234 0.39844-0.67969 0.33594-0.57422-0.12891-1.1719-0.085938-1.7227 0.12109l-2.332 0.88281c-0.61328 0.23047-1.293 0.18359-1.8711-0.125l-0.64453-0.34766c-0.71094-0.38281-1.4805-0.64844-2.2734-0.78516-1.3906-0.24219-3.7031-0.64453-5.3398-0.9375h-0.003907c-1.2695-0.22266-2.5742-0.14844-3.8125 0.21875l-0.042968 0.011718h0.003906c-0.92188 0.27344-1.7656 0.75391-2.4727 1.4023l-0.57031 0.52344c-0.14062 0.12891-0.32812 0.20312-0.51953 0.20312h-0.79297c-0.11719 0-0.22266 0.0625-0.27734 0.16406-0.054688 0.10156-0.046876 0.22656 0.015624 0.32031l0.33203 0.49609c0.20703 0.31641 0.46484 0.59375 0.75781 0.83203 0.35938 0.28906 0.86328 0.69531 1.2031 0.97656h-0.003906c0.21484 0.17578 0.25781 0.48828 0.097656 0.71094-0.13281 0.1875-0.37891 0.25781-0.58984 0.16406l-0.85547-0.37891h0.003906c-0.22656-0.10156-0.46875-0.15234-0.71484-0.15234h-0.007812c-0.21484 0-0.42578 0.042969-0.625 0.125l-0.92578 0.37891c-0.10938 0.042969-0.19141 0.14062-0.21484 0.25781-0.023438 0.11719 0.015625 0.23828 0.097656 0.32422 0.24219 0.24219 0.37109 0.57422 0.35938 0.91406-0.003906 0.11719 0.011719 0.20703 0.058594 0.20703 0.09375 0 1.7891-0.089844 2.7422-0.14062l-0.003906-0.003906c0.16797-0.007813 0.32812 0.050781 0.44922 0.16797 0.12109 0.11328 0.1875 0.26953 0.1875 0.4375 0 0.44531-0.32422 0.82812-0.76562 0.90234l-1.2969 0.21484v-0.003906c-0.39844 0.066406-0.76953 0.25781-1.0547 0.54688l-0.011719 0.011719v0.003906c-0.34766 0.35156-0.51562 0.84766-0.44922 1.3438l0.074218 0.53125c0.046876 0.35547 0.35156 0.62109 0.71094 0.62109h0.015625c0.28516 0 0.54688 0.15625 0.67969 0.40625l0.42188 0.78516h0.003906c0.14453 0.26953 0.42969 0.44141 0.74219 0.44141h1.2461c0.23828 0 0.44141 0.17188 0.48438 0.40625 0.035156 0.21094-0.050781 0.42188-0.22266 0.54688l-3.3203 2.3867v0.003906c-0.19922 0.14453-0.027343 0.45312 0.19922 0.35938l2.3047-0.94141c0.89062-0.36328 1.6719-0.95703 2.2656-1.7227l1.0977-1.4219c0.16797-0.21484 0.35547-0.41406 0.5625-0.58984l1.1211-0.95703c0.089844-0.078125 0.21875-0.085938 0.32031-0.023438 0.097656 0.066406 0.14453 0.1875 0.10938 0.30078l-0.14453 0.48828c-0.042969 0.14062-0.015625 0.29688 0.070312 0.41797 0.085938 0.12109 0.22266 0.19531 0.37109 0.20312 0.19922 0.007813 0.39062-0.066406 0.52734-0.21094l1.1211-1.1484h0.003907c0.35547-0.36328 0.91016-0.44922 1.3594-0.20703l0.80469 0.42969c0.27734 0.14844 0.58594 0.23828 0.89844 0.26172l0.89062 0.070313v-0.003906c0.59766 0.046875 1.1562 0.30859 1.5742 0.73828l0.62891 0.64453c0.30859 0.3125 0.75 0.46875 1.1875 0.41016l0.019531-0.003907-0.003906 0.003907c0.43359-0.054688 0.85938 0.12891 1.1133 0.48047l1.3047 1.7773c0.47266 0.64062 0.89453 1.3203 1.2617 2.0234l1.0195 1.9414c0.21484 0.41016 0.36719 0.84766 0.45313 1.3047 0.089843 0.47656 0.27734 0.93359 0.55469 1.3359l0.47266 0.69141c0.59375 0.87109 0.88281 1.918 0.8125 2.9727l-0.28516 4.5039c-0.03125 0.51172 0.12891 1.0195 0.45312 1.418l0.42578 0.52344s0.21875 0.71094 0.42578 1.3828v0.003906c0.22656 0.73828 0.79297 1.3242 1.5273 1.5781l0.03125 0.011718c0.78516 0.26953 1.3906 0.90234 1.625 1.7031l0.011719 0.039063v-0.003906c0.11328 0.38672 0.28906 0.75 0.52344 1.0781l3.5938 5.0234c0.035157 0.050781 0.11328 0.023438 0.11328-0.035156v-0.44922c0-0.375-0.11328-0.74219-0.32812-1.0508l-2.3867-3.4609c-0.19141-0.27734-0.15625-0.64844 0.078125-0.88672 0.066406-0.0625 0.15234-0.097657 0.24609-0.09375 0.089843 0.007812 0.17188 0.050781 0.23047 0.12109l4.625 5.8633h-0.003907c0.37891 0.48047 0.58594 1.0781 0.58594 1.6875v0.027344c0 0.60156 0.33594 1.1562 0.87109 1.4297l3.9023 2.0039c0.45703 0.23438 0.96875 0.35938 1.4844 0.35938h0.84375c0.6875 0 1.3516 0.23438 1.8867 0.66797l0.30078 0.24609c0.10156 0.082031 0.25 0.011718 0.25391-0.11719 0.003906-0.37109 0.30859-0.67188 0.67969-0.67188 0.1875 0 0.36719-0.074219 0.49219-0.21094 0.12891-0.13672 0.19922-0.32031 0.1875-0.50781-0.015624-0.25391 0.16797-0.47656 0.41797-0.51562l0.17188-0.027344h0.003906c0.44531-0.070312 0.8125-0.375 0.96094-0.80078z"/>
  <path d="m74.531 55.891-1.1758 2.3711c-0.070313 0.13672-0.0625 0.30469 0.015625 0.4375 0.078125 0.13281 0.21875 0.21875 0.37109 0.22656l1.8359 0.09375c0.42188 0.019531 0.79297-0.28125 0.85938-0.69531l0.039062-0.23438h-0.003906c0.0625-0.39062-0.18359-0.76172-0.56641-0.85547l-0.26953-0.066406c-0.33203-0.078125-0.58594-0.34375-0.66016-0.67969l-0.12109-0.55859c-0.035157-0.15625-0.25-0.18359-0.32422-0.039063z"/>
  <path d="m93.035 25.309-0.10938-0.011719c-0.48828-0.054687-0.84375-0.49609-0.78906-0.98438l0.19531-1.8359c0.089844-0.83984 0.52344-1.6016 1.1992-2.1055l1.6016-1.1914c0.12109-0.089844 0.21484-0.21094 0.27734-0.35156 0.0625-0.14844 0.042969-0.32031-0.050781-0.45312-0.097656-0.13281-0.25391-0.20312-0.41797-0.1875l-1.7461 0.16016c-0.95312 0.085938-1.875 0.39844-2.6836 0.91406l-0.75 0.47656v-0.003906c-0.13281 0.082031-0.29297-0.039063-0.25-0.18359l0.26562-0.95312h-0.003906c0.039062-0.13672 0.003906-0.28125-0.09375-0.38281-0.097657-0.10156-0.24219-0.14453-0.37891-0.11328l-1.4883 0.34766c-0.10156 0.023437-0.20703 0.003906-0.28906-0.058594-0.082032-0.0625-0.12891-0.16016-0.13672-0.26172-0.007813-0.1875 0.097656-0.36328 0.26953-0.44531l1.6797-0.79688h0.003906c0.10938-0.054688 0.17969-0.16406 0.17578-0.28906 0-0.12109-0.074219-0.23047-0.1875-0.28125l-1.5547-0.68359c-0.74609-0.32812-1.543-0.51172-2.3594-0.53906l-2.8828-0.097656c-0.46875-0.015625-0.93359 0.09375-1.3477 0.31641l-0.41016 0.22656c-0.46875 0.25781-0.98828 0.41406-1.5273 0.46094l-1.4727 0.12891c-0.089844 0.007813-0.16797 0.058594-0.21484 0.13672s-0.050782 0.17188-0.011719 0.25391l0.35547 0.75v0.003907c0.0625 0.12891 0.054687 0.28125-0.019532 0.40625-0.074218 0.12109-0.20312 0.20312-0.34375 0.21094-0.25781 0.015625-0.51562-0.03125-0.74609-0.13672l-1.7227-0.78516c-0.070312-0.03125-0.15234-0.027344-0.21484 0.015625-0.0625 0.039063-0.10156 0.10938-0.10156 0.1875 0 0.41797-0.32422 0.76562-0.74219 0.79688l-1.4141 0.10156v0.003907c-0.14453 0.007812-0.28906-0.039063-0.39453-0.14062-0.10938-0.097656-0.16797-0.23828-0.16797-0.38281 0-0.10938-0.046875-0.20703-0.12891-0.27734-0.082031-0.066407-0.1875-0.09375-0.29297-0.074219l-2.4961 0.45312c-0.30859 0.054687-0.52734 0.33594-0.50391 0.64844l0.027344 0.41797c0.007813 0.13281-0.039063 0.26562-0.13281 0.36719-0.089843 0.097656-0.21875 0.15234-0.35547 0.15234h-0.44141c-0.42188 0-0.83203 0.15625-1.1484 0.44141l-0.82422 0.73828c-0.066406 0.058593-0.089843 0.15234-0.058593 0.23828 0.03125 0.082031 0.11328 0.14062 0.20312 0.14062h0.51563c0.13672 0 0.26562 0.066406 0.34375 0.17969 0.078124 0.11328 0.09375 0.25781 0.046874 0.38672-0.1875 0.49219-0.60937 0.85156-1.125 0.95703l-0.21875 0.042969h-0.003906c-0.55469 0.11328-1.0898 0.30469-1.5938 0.57031l-0.73828 0.39062c-0.13281 0.070312-0.21875 0.21094-0.22266 0.36328-0.003907 0.14844 0.074219 0.29297 0.20312 0.37109l0.66016 0.39844h0.003906c0.26172 0.15625 0.56641 0.23047 0.875 0.21094l1.1367-0.078125v-0.003906c0.29688-0.019532 0.56641 0.17187 0.64453 0.45703 0.027344 0.10156 0.007813 0.20703-0.054687 0.28906s-0.16016 0.12891-0.26562 0.12891h-2.0859c-0.10156 0-0.19531 0.054687-0.24219 0.14844-0.046875 0.089844-0.039063 0.19531 0.023437 0.27734 0.42969 0.60547 1.125 0.96484 1.8711 0.96484h2.8516c1.1328 0 2.2109 0.5 2.9414 1.3672l0.55469 0.65625v0.003906c0.85156 1.0078 1.3867 2.2461 1.5391 3.5547l0.089843 0.75c0.015626 0.15625 0.19922 0.23438 0.32422 0.14062l0.39453-0.29688v-0.003906c0.13281-0.10156 0.30859-0.14063 0.47656-0.10547 0.16406 0.039062 0.30859 0.14844 0.38672 0.29688l0.70312 1.332c0.52734 0.99609 0.41016 2.2031-0.28906 3.082l-0.003906 0.003906c-0.26172 0.32813-0.30078 0.77344-0.10547 1.1406l3.1992 5.9297c0.32812 0.60547 0.89062 1.0508 1.5547 1.2383l0.14062 0.039063c0.31641 0.085937 0.65625 0.042969 0.94141-0.11719 0.28516-0.16406 0.49219-0.4375 0.57422-0.75391l1.0234-3.9023c0.16797-0.64062 0.73828-1.0938 1.4023-1.1133l0.30078-0.007812c0.64844-0.015626 1.25-0.33984 1.625-0.86719l0.73828-1.0469c0.33984-0.48047 0.85547-0.8125 1.4336-0.92578l2.207-0.42969v-0.003906c0.20703-0.039062 0.40625-0.097656 0.60156-0.17969 0.32031-0.13281 0.59766-0.35547 0.79297-0.64453l0.85937-1.2539c0.34375-0.39453 0.33594-0.98438-0.019531-1.3672l-0.34375-0.34375c-0.27734-0.28125-0.32812-0.71484-0.12109-1.0508l1.5508-2.5078c0.050781-0.082032 0.054687-0.18359 0.007812-0.26953-0.042969-0.085937-0.13281-0.14453-0.22656-0.14844-0.125-0.003906-0.21484-0.11719-0.19531-0.23828l-0.007812-0.96094v0.003906c-0.003906-0.37891-0.23438-0.71484-0.58203-0.85937l-0.78125-0.31641c-0.23047-0.089843-0.37109-0.32031-0.35156-0.56641 0.007812-0.097656 0.058594-0.1875 0.13672-0.24609 0.074219-0.058593 0.17578-0.082031 0.26953-0.0625l1.3906 0.27734h0.003906c0.11328 0.019531 0.23047-0.007813 0.32031-0.082031 0.085937-0.074219 0.14062-0.18359 0.14062-0.29688 0-0.20703-0.16406-0.37109-0.36719-0.37891z"/>
  <path d="m43.309 36.121c0.37891 0.082031 0.80859 0.17188 1.1484 0.25 0.375 0.082031 0.76562-0.074219 0.97656-0.39453l0.20312-0.30469v-0.003906c0.097656-0.14453 0.12109-0.32031 0.070312-0.48438-0.050781-0.16797-0.17578-0.29688-0.33594-0.36328l-0.89844-0.35937h0.003906c-0.48047-0.19141-0.83984-0.60547-0.95703-1.1094l-0.16797-0.71094c-0.10937-0.47656-0.054687-0.97656 0.16016-1.4141l0.18359-0.37109c0.046876-0.09375 0.050782-0.20703 0.007813-0.30469-0.042969-0.097656-0.12891-0.16797-0.23047-0.19922-0.26953-0.078124-0.55859-0.03125-0.78906 0.13281l-0.19922 0.14062v-0.003906c-0.34375 0.24219-0.5625 0.62109-0.60156 1.0352l-0.10156 1.0547c-0.011719 0.10547-0.15625 0.13281-0.20312 0.035156l-0.30469-0.64453c-0.066407-0.14062-0.17578-0.26172-0.30859-0.34375-0.17969-0.10937-0.41016-0.09375-0.57422 0.039063l-0.41797 0.33594c-0.070312 0.054688-0.16406 0.074219-0.25 0.042969-0.082031-0.027343-0.14844-0.097656-0.16797-0.18359-0.066407-0.26172-0.25781-0.47266-0.51172-0.5625l-0.90234-0.32422c-0.44922-0.16406-0.94922-0.085938-1.332 0.20312l-0.98047 0.73828v-0.003906c-0.28906 0.21875-0.46094 0.5625-0.46094 0.92578v0.27734c0 0.52734 0.42578 0.95312 0.95312 0.95312h2.5703c0.22266 0 0.41406 0.16016 0.45312 0.375 0.015625 0.085937-0.007812 0.16797-0.058594 0.23438-0.050781 0.066406-0.13281 0.10547-0.21484 0.10938l-2.8125 0.38281c-0.11328 0.015625-0.12891 0.17578-0.019531 0.20703l1.6719 1.1992c0.32812 0.23828 0.73047 0.34375 1.1328 0.30078l1.1211-0.11719c0.48828-0.050781 0.96094-0.21094 1.3789-0.46484 0.52734-0.32422 1.1602-0.43359 1.7656-0.30469z"/>
  <path d="m34.359 32.695 0.11328-0.17969c0.42578-0.67578 1.0234-1.2266 1.7344-1.5977l0.4375-0.23047c0.12891-0.070312 0.21875-0.19922 0.23438-0.34375 0.019532-0.14844-0.039062-0.29297-0.14844-0.39062-0.23828-0.20703-0.54297-0.32812-0.85938-0.34375l-3.1016-0.15625 0.003907-0.003906c-0.40625-0.019531-0.75391 0.29297-0.77734 0.69922l-0.03125 0.60547c-0.027344 0.44922-0.18359 0.87891-0.44922 1.2422-0.23828 0.31641-0.17578 0.76562 0.13672 1.0078l0.39062 0.30078h0.003906c0.30078 0.23047 0.69141 0.3125 1.0586 0.21484l0.1875-0.046875c0.44141-0.11328 0.82031-0.39062 1.0664-0.77734z"/>
  <path d="m46.684 33.129-1.5625-1.2266c-0.074219-0.054688-0.125-0.13281-0.14844-0.21875-0.03125-0.10547-0.003906-0.21875 0.070313-0.29688 0.070312-0.082031 0.17969-0.11719 0.28516-0.097657 0.15234 0.027344 0.29297 0.097657 0.41016 0.19922 0.070313 0.0625 0.16406 0.089844 0.25391 0.078125 0.09375-0.015625 0.17578-0.074218 0.21875-0.15625l0.042968-0.082031h0.003906c0.10547-0.19531 0.12891-0.42578 0.070313-0.64062l-0.050781-0.17969h-0.003906c-0.039063-0.13281-0.011719-0.27344 0.070312-0.38281s0.21094-0.17188 0.34766-0.17188h1.0547c0.26562 0 0.48828 0.20703 0.50781 0.47266l0.125 1.8516-0.003906 0.003906c0.027344 0.38281-0.1875 0.74219-0.53906 0.90234l-0.14453 0.066406c-0.33203 0.14844-0.71875 0.10156-1.0078-0.12109z"/>
  <path d="m33.633 26.445 2.375-1.332h-0.003906c0.29297-0.16016 0.62109-0.24609 0.95312-0.24609 0.14453 0 0.27734 0.0625 0.37109 0.17187 0.089844 0.10938 0.12891 0.25 0.10547 0.39063-0.0625 0.36719-0.30078 0.67969-0.63281 0.84375l-1.4141 0.69531c-0.34766 0.17188-0.72656 0.25781-1.1094 0.25781h-0.54297c-0.09375 0-0.18359-0.035156-0.25-0.10156s-0.10156-0.15625-0.10156-0.25c0-0.17969 0.09375-0.33984 0.25-0.42969z"/>
  <path d="m43.09 28.117c-0.15234 0.3125-0.45312 0.52344-0.79688 0.55859l-1.4141 0.14453c-0.12109 0.011719-0.23438 0.050782-0.33984 0.11328l-0.41406 0.25391c-0.23828 0.14453-0.51562 0.21484-0.79688 0.19531l-0.9375-0.0625c-0.15625-0.011718-0.28516-0.125-0.3125-0.28125-0.0625-0.33594-0.35156-0.58203-0.69141-0.59375l-0.74609-0.019531c-0.16797-0.003906-0.30078-0.14062-0.30078-0.30859 0-0.21484 0.089844-0.42188 0.25-0.56641l0.73047-0.66406c0.31641-0.28906 0.77344-0.37109 1.168-0.20312l1.0273 0.43359c0.17188 0.070312 0.30859 0.20312 0.39062 0.36719 0.085938 0.17969 0.26562 0.29297 0.46484 0.29297h0.035156-0.003906c0.24609 0 0.44922-0.1875 0.46875-0.43359l0.0625-0.92578c0.007812-0.14453 0.082031-0.28125 0.19922-0.36719 0.11719-0.085937 0.26563-0.12109 0.40625-0.089843 0.22266 0.050781 0.38281 0.24609 0.38281 0.47656v0.12109c0 0.13672 0.054687 0.26562 0.14844 0.36328 0.097657 0.09375 0.23047 0.14844 0.36719 0.14844l0.58984-0.003906-0.003906-0.003906c0.09375 0 0.17969 0.042969 0.23437 0.11719 0.054688 0.074218 0.074219 0.17187 0.046876 0.26172z"/>
  <path d="m40.383 25.109h-0.98047c-0.19531 0-0.36719-0.125-0.42969-0.3125-0.046875-0.13281-0.027344-0.27734 0.050782-0.39453 0.078124-0.11719 0.20312-0.19141 0.33984-0.20312l1.0156-0.085938c0.15625-0.015625 0.30859 0.054688 0.40234 0.17969s0.11719 0.28906 0.0625 0.4375l-0.035156 0.085937c-0.066406 0.17578-0.23438 0.29297-0.42578 0.29297z"/>
  <path d="m45.992 28.23c-0.38672-0.27344-0.97266-0.6875-1.3633-0.96484h0.003906c-0.26172-0.18359-0.45703-0.44141-0.56641-0.74219l-0.46094-1.2852v-0.003906c-0.050781-0.14844 0.13672-0.26172 0.24219-0.14844l0.63672 0.67969h0.003906c0.31641 0.33984 0.77734 0.51562 1.2422 0.46875h0.015625c0.15625-0.015625 0.3125-0.015625 0.46875-0.003906 0.26172 0.019531 0.74609 0.039062 1.1484 0.054687 0.17969 0.003906 0.35156 0.085938 0.46875 0.22266 0.11719 0.13281 0.17578 0.3125 0.16016 0.49219v0.79297c0 0.1875-0.074219 0.37109-0.20703 0.50391-0.13672 0.13281-0.31641 0.21094-0.50391 0.21094h-0.42188c-0.30859 0-0.61328-0.097656-0.86719-0.27734z"/>
  <path d="m48.762 28.086 0.023437-0.125v0.003906c0.046875-0.25781 0.27734-0.4375 0.53516-0.41797l0.57031 0.039063h0.003906c0.13281 0.011718 0.26172 0.074218 0.34766 0.17969 0.089843 0.10156 0.13281 0.23438 0.12109 0.37109l-0.023437 0.27344v-0.003906c-0.011719 0.15625-0.09375 0.29688-0.22266 0.38281-0.13281 0.089844-0.29297 0.10938-0.44141 0.058594l-0.57031-0.1875h-0.003907c-0.23828-0.078125-0.38281-0.32422-0.33984-0.57422z"/>
  <path d="m51.582 28.734c0.30078 0.28125 0.69531 0.4375 1.1094 0.44141l4.6562 0.0625v0.003907c0.4375 0.003906 0.81641-0.30078 0.90234-0.72656l0.042969-0.21875c0.035156-0.16406-0.007813-0.33984-0.11328-0.47266-0.10547-0.13281-0.26563-0.21094-0.4375-0.21484l-4.2656-0.085937c-0.32031-0.003907-0.62109-0.15625-0.81641-0.41016l-0.46484-0.60156-0.003906 0.003906c-0.23047-0.30078-0.57812-0.48438-0.95312-0.50781l-1.8125-0.11328h-0.003906c-0.18359-0.011719-0.24609 0.23828-0.078125 0.31641l0.9375 0.42578c0.35156 0.18359 0.60938 0.50781 0.71875 0.88672z"/>
  <path d="m57.328 42.812 0.0625 0.046875-0.003906-0.003906c0.20703 0.15234 0.47656 0.18359 0.71094 0.078125 0.10938-0.050782 0.18359-0.16016 0.19141-0.28125 0.007813-0.12109-0.058593-0.23828-0.16406-0.30078l-2.8164-1.625c-0.058594-0.035156-0.12891-0.042968-0.19531-0.019531-0.0625 0.023438-0.11719 0.074219-0.14062 0.13672l-0.41406 1.0898c-0.16406 0.42578 0.011718 0.90625 0.40625 1.1289l0.058594 0.03125-0.003907 0.003906c0.375 0.21094 0.84766 0.13672 1.1367-0.17578 0.30469-0.33203 0.80859-0.37891 1.1719-0.10938z"/>
  <path d="m60.348 37.652 0.125-0.11328c0.082032-0.070312 0.1875-0.11328 0.29688-0.11328h0.51953c0.125 0 0.24609 0.054688 0.33203 0.15234 0.082031 0.09375 0.12109 0.22266 0.10547 0.34766l-0.039062 0.30078c-0.015625 0.14844-0.11328 0.28125-0.25 0.34375l-0.45703 0.21094c-0.11328 0.054688-0.23828 0.054688-0.35156 0.007812-0.11719-0.042968-0.20312-0.13672-0.25-0.25l-0.15234-0.39844c-0.0625-0.17188-0.015624-0.36328 0.12109-0.48828z"/>
  <path d="m74.898 36.152-0.66797-0.039063h0.003906c-0.12109-0.007812-0.23438-0.0625-0.31641-0.15625-0.078125-0.089843-0.11719-0.21094-0.10547-0.33203l0.082031-0.92578c0.011719-0.125 0.074219-0.23828 0.17188-0.3125 0.10156-0.078125 0.22656-0.10938 0.35156-0.085938l0.71094 0.125v-0.003906c0.097656 0.015625 0.18359 0.066406 0.25 0.13672l0.16016 0.17188h0.003907c0.12109 0.12891 0.15234 0.32031 0.082031 0.48438l-0.28906 0.66797c-0.074219 0.17188-0.25 0.27734-0.4375 0.26953z"/>
  <path d="m46.957 24.578h-0.36328c-0.41016 0-0.80859-0.15625-1.1055-0.44141l-1.793-1.6992v0.003906c-0.10547-0.10156-0.16406-0.23828-0.16406-0.38281 0-0.125 0.11328-0.21875 0.23438-0.20312l0.98047 0.14844c0.49219 0.074219 0.94141 0.32031 1.2695 0.69141l0.85156 0.96484c0.17969 0.20312 0.27734 0.46094 0.27734 0.73047 0 0.10547-0.085937 0.1875-0.1875 0.1875z"/>
  <path d="m48.477 24.285h0.96875c0.09375 0 0.17969-0.035156 0.24609-0.10156 0.066406-0.0625 0.10156-0.15234 0.10156-0.24219 0-0.28516-0.23047-0.51562-0.51172-0.51562h-0.20703c-0.14453 0-0.28125-0.054687-0.38672-0.15234l-0.42578-0.41016c-0.11719-0.11328-0.30078-0.12109-0.42578-0.015625-0.16016 0.13672-0.20313 0.36328-0.10547 0.54688l0.36719 0.66797c0.074219 0.13672 0.22266 0.22266 0.37891 0.22266z"/>
  <path d="m51.887 23.652h0.91016c0.23047 0 0.45703-0.066406 0.65234-0.19141 0.078125-0.046876 0.17188-0.046876 0.25 0 0.074219 0.046874 0.11719 0.13281 0.10547 0.21875l-0.13281 1.2031c-0.035156 0.32813-0.21094 0.62109-0.47656 0.80859l-0.19922 0.14062h-0.003906c-0.070313 0.050781-0.11328 0.13281-0.11328 0.22266 0.003906 0.085937 0.046875 0.16797 0.125 0.21484 0.097656 0.0625 0.21094 0.10156 0.32422 0.10547l4.8477 0.24609c0.37109 0.019531 0.69922-0.23828 0.76562-0.60547l0.11328-0.61719c0.035156-0.19141 0.11719-0.37109 0.23828-0.52344l1.5156-1.9336c0.13281-0.17188 0.28125-0.33594 0.4375-0.48828 0.13672-0.12891 0.039062-0.35938-0.14844-0.35547l-0.4375 0.011719v-0.003906c-0.13672 0.003906-0.19531-0.17578-0.078125-0.25l2.9609-1.5586c0.75-0.39453 1.4609-0.85938 2.1289-1.3828l2.1211-1.668h-0.003907c0.12891-0.10156 0.19531-0.26172 0.17188-0.42188-0.023438-0.16406-0.13281-0.30078-0.28516-0.35938l-0.125-0.050782h0.003907c-0.42188-0.16797-0.85938-0.28516-1.3086-0.35156l-2.1523-0.31641c-0.51953-0.074219-1.043-0.09375-1.5664-0.058594l-4.2031 0.28906v-0.003906c-0.52344 0.039063-1.0312 0.21875-1.457 0.52344l-0.31641 0.22656h-0.003906c-0.33594 0.23828-0.73438 0.36719-1.1484 0.36719h-1.3594c-0.37109 0-0.73437 0.085937-1.0625 0.25391l-0.38672 0.19922c-0.15234 0.078125-0.25781 0.22656-0.28516 0.39453-0.023438 0.17188 0.035156 0.34375 0.16016 0.46094l0.80078 0.75781c0.41406 0.39062 0.97266 0.58984 1.5391 0.55078l2.6953-0.18359c0.16406-0.011719 0.30859 0.10156 0.34375 0.26172 0.023438 0.125-0.042969 0.25391-0.16016 0.30469l-0.84766 0.36719c-0.3125 0.13672-0.64844 0.20312-0.98828 0.19531l-0.99219-0.019532v0.003907c-0.22266-0.003907-0.44141 0.066406-0.62109 0.20312-0.22656 0.17969-0.55078 0.18359-0.78125 0.011718l-1.9453-1.4375h-0.003906c-0.39844-0.29687-0.91797-0.39453-1.3984-0.25781-0.47656 0.13672-0.86328 0.49219-1.0352 0.95703-0.23437 0.625-0.078124 1.332 0.39844 1.8008l1.2969 1.2773c0.30078 0.29688 0.70312 0.46094 1.1211 0.46094z"/>
 </g>
<text x="0.0" y="117.5" font-size="5.0" font-weight="bold" font-family="Arbeit Regular, Helvetica, Arial-Unicode, Arial, Sans-serif" fill="#000000">Created by Leonardo Henrique Martini</text><text x="0.0" y="122.5" font-size="5.0" font-weight="bold" font-family="Arbeit Regular, Helvetica, Arial-Unicode, Arial, Sans-serif" fill="#000000">from Noun Project</text></svg>