<svg xmlns="http://www.w3.org/2000/svg" xmlns:xlink="http://www.w3.org/1999/xlink" version="1.1" x="0px" y="0px" viewBox="0 0 100 125" enable-background="new 0 0 100 100" xml:space="preserve"><path fill-rule="evenodd" clip-rule="evenodd" d="M47.982,78.03c0.533-0.554-0.681-0.97-0.571-0.301  C47.521,78.398,47.449,78.585,47.982,78.03L47.982,78.03z M43.412,5.391c-0.427,0.337,0.599-0.218,0.623,0.367  c0.024,0.584-0.453,0.021-0.354,0.703c0.098,0.68,2.155-0.991,1.273-1.542C44.073,4.366,43.839,5.055,43.412,5.391L43.412,5.391z   M54.674,88.791c0.541,0.777,0.839,0.428,1.522,0.498c1.166,0.121,0.547-1.603-1.15-1.274  C53.349,88.342,54.334,88.306,54.674,88.791L54.674,88.791z M48.853,93.907c-0.478,0.809-1.812,1.1-2.101,1.28  c-0.288,0.18-1.192,0.13-1.312-0.215c-0.12-0.344-0.121-0.214-1.984-0.452c-1.863-0.239,1.323-0.479,1.687-0.611  c0.362-0.133-0.145-0.052-0.471-0.411c-0.252-0.274-0.201-0.091-0.753-0.049c-1.215,0.089-2.234-1.372-3.268-2.848  c-1.032-1.476-0.715-1.304-0.915-2.258c-0.201-0.955-0.27-0.791-0.252-1.338c0.032-1.001,0.322-0.543,0.27-0.973  c-0.064-0.525-0.97,0.435-1.121-0.14c-0.15-0.573,0.406-0.972-0.863-1.066c-0.007-0.001-1.512-0.311,0.179-1.093  c0.524-0.242,0.661,0.408,1.173,0.339s-0.115-0.669-0.06-1.311c0.058-0.64,0.347-0.169,0.466-0.933s-0.38-0.124-0.621-0.628  c-0.24-0.504,0.543-4.288-0.718-3.216c-1.261,1.071-0.896-2.185-0.843-2.765s-0.894-2.156-0.992-2.803  c-0.097-0.646-0.123,1.333,0.415-1.183c0.538-2.516-0.095-3.315-0.143-3.993c-0.049-0.678,1.465,0.078,0.367-3.132  c-1.097-3.209,0.033-6.93-0.42-9.619c-0.453-2.69-0.274-0.925-0.085-2.475c0.189-1.55-1.144-4.581-0.879-5.793  s-4.724-2.406-6.396-3.022c-1.671-0.617-1.966-2.563-3.474-3.906c-1.509-1.344-2.408-3.404-3.457-4.854  c-1.049-1.449-2.629-1.737-3.445-2.503c-0.816-0.766,0.357-0.457-0.118-1.293c-0.476-0.837,0.076-2.598,0.701-2.48  c0.625,0.118,1.081-2.119,0.42-1.984c-0.66,0.135,0.299,0.527-0.529,0.882c-0.829,0.355-1.353-1.588-0.761-2.288  c0.591-0.701-0.803-0.654,0.598-2.506c1.402-1.852,1.217-0.993,1.617-1.816c0.399-0.822,2.304-2.25,1.863-2.935  c-0.44-0.684-0.439-2.473-0.785-3.41c-0.346-0.938-0.902-0.78-0.245-1.494c2.351-2.553,2.441-4.691,3.869-5.367  c1.436-0.679,2.622-1.856,3.493-2.195c0.872-0.339,0.438,2.605,0.49,2.735c0.051,0.13,1.737,0.159,1.492-0.82  c-0.243-0.979-0.159-1.637,0.263-1.858c0.422-0.222,0.208,0.38,0.785,0.694c0.575,0.314,1.465-0.102,1.886,0.121  c0.418,0.223-0.247,0.735,0.128,0.952c0.374,0.216,1.212,0.098,1.519-0.488c0.309-0.586,3.688,1.048,4.354-0.33  c0.004-0.008,0.516-1.723,2.79-0.358c0.554,0.333-1.304-0.182-1.119,0.541c0.185,0.722,2.409,0.378,2.876,0.9  s-0.684,0.955-0.476,1.324c0.208,0.368-0.218-0.085,0.93-0.188c1.147-0.103,1.724-0.432,3.109,1.373s1.038,1.19,3.431,1.708  c2.393,0.519,3.066-0.608,4.836,0.566c1.77,1.173,1.8,0.874,2.743,3.058c0.944,2.185,0.856,0.762,1.525,1.6  c0.668,0.837-2.97,3.754-3.075,4.331c-0.044,0.242,3.408-0.752,4.213,0.405c0.546,0.786-0.262-2.915,3.82-1.436  c4.082,1.479,2.168,2.258,2.622,2.95c0.453,0.694,1.076-1.49,2.757-0.739c1.68,0.75,3.205-0.978,6.202,1.959  c2.998,2.938,3.859,0.387,4.528,4.099c0.667,3.712-1.768,4.405-2.794,5.438s-1.072,2.458-1.671,2.722  c-0.598,0.264-1.417-0.671-0.996,3.301c0.42,3.972-0.979,3.428-1.085,4.604c-0.105,1.175-0.112,1.312-0.867,2.467  c-0.753,1.158-1.399,2.765-2.15,3.384c-0.752,0.621-2.315-0.341-3.134-0.004c-0.818,0.338,1.106-0.391-0.617,0.583  s-2.146,0.813-3.932,2.526c-1.785,1.714-0.353,2.819-0.601,3.953c-0.247,1.133-0.904,0.966-1.367,1.762  c-0.465,0.794-0.271,1.074-1.078,2.217c-0.806,1.144-1.393,0.905-2.06,2.643c-0.668,1.737-3.249,3.026-3.111,3.494  c0.138,0.469-1.347,1.895-2.076,3.248c-0.73,1.354-4.141,1.51-5.258,1.93c-1.117,0.421,1.055,1.019,0.317,2.667  c-0.736,1.648-3.341-0.797-2.678,1.589c0.226,0.81,0.963,1.692,0.774,1.821c-0.568,0.389-0.379,1.95-0.872,2.483  c-0.494,0.532,0.066-0.474-1.009,0.697c-1.076,1.171,0.781,1.37,1.502,2.397c0.722,1.027-1.676,3.094-1.475,4.937  c0.202,1.843,3.189,2.154,0.196,1.978c-2.992-0.176-1.253,0.047-0.668,0.356c0.584,0.312,1.201,1.293,2.228,1.874  C48.136,93.8,49.232,93.263,48.853,93.907z"/><text x="0" y="115" fill="#000000" font-size="5px" font-weight="bold" font-family="'Helvetica Neue', Helvetica, Arial-Unicode, Arial, Sans-serif">Created by Nikita Kozin</text><text x="0" y="120" fill="#000000" font-size="5px" font-weight="bold" font-family="'Helvetica Neue', Helvetica, Arial-Unicode, Arial, Sans-serif">from the Noun Project</text></svg>